Coordinates
version=1
nRows=12
nColumns=28
inDegrees=yes

Units are S.I. units (second, meters, Newtons, ...)
Angles are in degrees.

endheader
time	pelvis_tilt	pelvis_list	pelvis_rotation	pelvis_tx	pelvis_ty	pelvis_tz	hip_flexion_r	hip_adduction_r	hip_rotation_r	knee_angle_r	ankle_angle_r	subtalar_angle_r	mtp_angle_r	hip_flexion_l	hip_adduction_l	hip_rotation_l	knee_angle_l	socket_flexion	socket_adduction	socket_rotation	socket_tx	socket_ty	socket_tz	foot_flex	lumbar_extension	lumbar_bending	lumbar_rotation
      0.53333333	     -2.25209827	     -6.77145363	      7.53130392	     -0.01764825	      0.95932301	      0.23948522	     26.17141639	      6.38032767	     -3.13820224	     -8.81532108	      6.95597410	    -15.75909320	     -7.15140597	    -18.64127777	     -5.67627206	      8.88495302	     -8.56538581	      0.00000000	      0.00000000	      0.00000000	      0.00000000	     -0.00084562	      0.00000000	      9.68391466	     -6.31203718	      7.01597034	    -19.25903229
      0.53750000	     -2.30231655	     -6.61346641	      7.39711386	     -0.01791932	      0.95921813	      0.23977582	     26.43151852	      6.23053902	     -3.28923610	     -9.20508893	      6.91229157	    -15.53804867	     -6.96682423	    -18.55650343	     -5.46596010	      8.73926713	     -8.66539641	      0.00000000	      0.00000000	      0.00000000	      0.00000000	     -0.00073199	      0.00000000	      9.79137794	     -6.34022723	      6.78381348	    -18.95126149
      0.54166667	     -2.22981024	     -6.77321639	      7.50343873	     -0.01136444	      0.95793509	      0.23962235	     26.61103274	      6.47948735	     -3.04358109	    -10.00815071	      6.60976955	    -15.51820441	     -6.92651458	    -18.83789029	     -5.68087325	      8.86748728	     -8.98073839	      0.00000000	      0.00000000	      0.00000000	      0.00000000	     -0.00071757	      0.00000000	      9.74085879	     -6.36481273	      7.04616449	    -19.04682679
      0.54583333	     -2.14825190	     -6.90329592	      7.43757726	     -0.00475265	      0.95659558	      0.23981096	     27.01393336	      6.73070829	     -3.10149570	    -11.27322572	      5.98321419	    -15.66317664	     -6.80154582	    -19.14131737	     -5.81381876	      8.61561453	     -9.33424019	      0.00000000	      0.00000000	      0.00000000	      0.00000000	     -0.00061021	      0.00000000	      9.78540483	     -6.41869300	      7.27952163	    -19.23467132
      0.55000000	     -2.07113846	     -7.02390474	      7.51108992	      0.00166647	      0.95538875	      0.23974853	     27.22463249	      6.95026281	     -2.82040452	    -12.17196854	      5.60952788	    -15.61659424	     -6.73492385	    -19.33110381	     -5.96985794	      8.74955426	     -9.82986887	      0.00000000	      0.00000000	      0.00000000	      0.00000000	     -0.00058818	      0.00000000	      9.72943419	     -6.47077840	      7.50625965	    -19.26593085
      0.55416667	     -2.49771695	     -6.93300530	      7.15347930	      0.00810294	      0.95335983	      0.24045097	     28.28890950	      7.01240874	     -2.57929461	    -13.65819582	      3.78926763	    -16.82389492	     -1.81960827	    -19.01540323	     -5.71805059	      8.47367203	    -10.41635951	      0.00000000	      0.00000000	      0.00000000	      0.00000000	     -0.00044851	      0.00000000	      9.73775111	     -6.00767138	      7.36926139	    -19.13171332
      0.55833333	     -2.39107592	     -7.05691435	      7.20332954	      0.01454984	      0.95228025	      0.24043274	     28.49884165	      7.24037920	     -2.35885380	    -14.65952955	      3.39190925	    -16.73244789	     -1.82686928	    -19.18025619	     -5.85958691	      8.54957684	    -11.00518602	      0.00000000	      0.00000000	      0.00000000	      0.00000000	     -0.00038357	      0.00000000	      9.64354376	     -6.11267935	      7.59913275	    -19.15993881
      0.56250000	     -2.75130994	     -6.92087963	      6.86064342	      0.02094711	      0.95044106	      0.24115077	     29.49859285	      7.27225790	     -2.07479459	    -16.26598081	      2.72929535	    -16.79570735	     -1.39299094	    -18.87046141	     -5.56879467	      8.30931630	    -11.68460936	      0.00000000	      0.00000000	      0.00000000	      0.00000000	     -0.00020066	      0.00000000	      9.57858614	     -5.73780212	      7.40705541	    -18.94947725
      0.56666667	     -2.63406474	     -7.06100083	      6.94661983	      0.02749581	      0.94950357	      0.24110201	     29.63588833	      7.50906251	     -1.82430772	    -17.18737192	      2.39817902	    -16.70560572	     -1.37827257	    -18.97058674	     -5.73146362	      8.38289280	    -12.38412883	      0.00000000	      0.00000000	      0.00000000	      0.00000000	     -0.00010039	      0.00000000	      9.37987768	     -5.83385064	      7.65007550	    -18.96514203
      0.57083333	     -3.05594387	     -6.89855737	      6.55746102	      0.03385890	      0.94765471	      0.24191207	     30.71500852	      7.52465027	     -1.56148184	    -18.84197503	      1.66178729	    -16.87631848	     -0.72486531	    -18.51028579	     -5.38266798	      8.13508428	    -13.21361643	      0.00000000	      0.00000000	      0.00000000	      0.00000000	      0.00008511	      0.00000000	      9.27655237	     -5.39602756	      7.42575113	    -18.78089830
      0.57500000	     -2.93018497	     -7.03979745	      6.57987202	      0.04044497	      0.94686934	      0.24193548	     30.83948890	      7.77395354	     -1.37175638	    -19.78408205	      1.33115512	    -16.79451196	     -0.69413299	    -18.55514136	     -5.51176711	      8.15028073	    -14.02937918	      0.00000000	      0.00000000	      0.00000000	      0.00000000	      0.00023300	      0.00000000	      8.99491811	     -5.50977750	      7.66549462	    -18.80005929
      0.57916667	     -2.81774219	     -7.14448009	      6.54604492	      0.04703759	      0.94608838	      0.24212085	     31.03792941	      7.99373433	     -1.24688121	    -20.85126522	      0.94823688	    -16.73023963	     -0.65978284	    -18.55963581	     -5.58977017	      8.06045179	    -14.90097558	      0.00000000	      0.00000000	      0.00000000	      0.00000000	      0.00044065	      0.00000000	      8.71086436	     -5.61934072	      7.86480843	    -18.82265372
